<svg width="54" height="54" viewBox="0 0 54 54" fill="none" xmlns="http://www.w3.org/2000/svg">
<path d="M27 0.75C33.9619 0.75 40.6387 3.51562 45.5616 8.43845C50.4844 13.3613 53.25 20.0381 53.25 27C53.25 33.9619 50.4844 40.6387 45.5616 45.5616C40.6387 50.4844 33.9619 53.25 27 53.25C20.0381 53.25 13.3613 50.4844 8.43845 45.5616C3.51562 40.6387 0.75 33.9619 0.75 27C0.75 20.0381 3.51562 13.3613 8.43845 8.43845C13.3613 3.51562 20.0381 0.75 27 0.75ZM23.73 32.1787L17.8988 26.3438C17.6897 26.1347 17.4415 25.9689 17.1684 25.8557C16.8953 25.7426 16.6025 25.6844 16.3069 25.6844C16.0112 25.6844 15.7185 25.7426 15.4454 25.8557C15.1722 25.9689 14.924 26.1347 14.715 26.3438C14.2928 26.7659 14.0556 27.3386 14.0556 27.9356C14.0556 28.5327 14.2928 29.1053 14.715 29.5275L22.14 36.9525C22.3485 37.1626 22.5964 37.3294 22.8696 37.4432C23.1429 37.557 23.4359 37.6156 23.7319 37.6156C24.0278 37.6156 24.3209 37.557 24.5941 37.4432C24.8673 37.3294 25.1153 37.1626 25.3237 36.9525L40.6987 21.5737C40.9106 21.3656 41.0791 21.1175 41.1946 20.8439C41.3101 20.5702 41.3703 20.2764 41.3717 19.9794C41.373 19.6824 41.3156 19.3881 41.2027 19.1134C41.0897 18.8387 40.9235 18.5891 40.7136 18.3789C40.5037 18.1688 40.2543 18.0023 39.9797 17.889C39.7052 17.7757 39.4109 17.7179 39.1139 17.719C38.8169 17.72 38.523 17.7798 38.2492 17.895C37.9754 18.0102 37.7272 18.1784 37.5188 18.39L23.73 32.1787Z" fill="#14AE5C"/>
</svg>
